<?xml version="1.0" encoding="UTF-8"?>
<svg version="1.1" xmlns="http://www.w3.org/2000/svg" width="1536" height="1024">
<path d="M0 0 C506.88 0 1013.76 0 1536 0 C1536 337.92 1536 675.84 1536 1024 C1029.12 1024 522.24 1024 0 1024 C0 686.08 0 348.16 0 0 Z " fill="#FDFDFD" transform="translate(0,0)"/>
<path d="M0 0 C1.88580938 0.740601 3.77255037 1.47883364 5.66015625 2.21484375 C6.60391113 2.58335449 7.54766602 2.95186523 8.52001953 3.33154297 C12.46072627 4.83776552 16.44431541 6.20304588 20.4375 7.5625 C31.3547198 11.30412999 42.10280742 15.48929815 52.8581543 19.66870117 C60.83424415 22.75689051 68.83470798 25.64151494 76.97558594 28.26733398 C81.11016199 29.66597487 85.09069651 31.34349154 89.1015625 33.05859375 C97.92003532 36.74572196 106.91364027 39.97849754 116 42.9375 C121.42965798 44.71910653 126.65722013 46.74550164 131.90625 48.99609375 C138.50283543 51.71641461 145.23700606 54.08355342 151.93945312 56.52832031 C155.85217844 57.96210427 159.75019158 59.43429536 163.64990234 60.90307617 C167.87319982 62.49052411 172.10255971 64.06070995 176.3359375 65.62109375 C178.59900421 66.45560477 180.8620235 67.2902444 183.125 68.125 C184.27669678 68.54982666 185.42839355 68.97465332 186.61499023 69.41235352 C194.7105764 72.40878995 202.76678324 75.49749462 210.8125 78.625 C218.91138041 81.77100114 227.03042955 84.72303253 235.29956055 87.38842773 C240.6151403 89.11485 245.74916863 91.14172807 250.8671875 93.39453125 C252.99257487 94.26907589 255.00815823 94.89013655 257.25 95.375 C257.25 96.035 257.25 96.695 257.25 97.375 C244.321221 102.29305327 231.36331998 107.07320826 218.27832031 111.56005859 C212.93270733 113.4050619 207.67061605 115.35664928 202.4375 117.5 C197.30172006 119.60279464 192.14619857 121.46525609 186.875 123.1875 C168.95604805 129.04994499 151.32361161 135.69826183 133.71337891 142.421875 C125.18703059 145.6673956 116.61859039 148.74816929 107.99609375 151.7265625 C95.96927851 155.88465155 84.04547717 160.33995138 72.109375 164.75 C68.78131613 165.9793458 65.45318395 167.20849288 62.125 168.4375 C61.29282959 168.74487091 60.46065918 169.05224182 59.60327148 169.368927 C49.61547097 173.05615901 39.6186985 176.70225912 29.55419922 180.17602539 C24.11599069 182.0560711 18.729889 184.05275852 13.35131836 186.09643555 C-15.1453721 196.86715119 -15.1453721 196.86715119 -21.25 194.5625 C-21.83966553 194.34311768 -22.42933105 194.12373535 -23.03686523 193.89770508 C-24.43854696 193.37557735 -25.83872551 192.84940538 -27.23779297 192.3203125 C-30.13385442 191.23056032 -33.03715919 190.16149435 -35.94140625 189.09375 C-46.59223202 185.17308261 -57.22221458 181.20637209 -67.8125 177.125 C-74.61338005 174.5083414 -81.44817055 172.11378412 -88.38110352 169.87402344 C-96.41200919 167.23520991 -104.2803708 164.16618689 -112.17007446 161.13806152 C-119.37819914 158.3743735 -126.58510999 155.67112452 -133.9375 153.3125 C-141.2747312 150.95677121 -148.44376292 148.23080635 -155.625 145.4375 C-163.8410753 142.24297991 -172.0676862 139.14717681 -180.40283203 136.27856445 C-189.46756873 133.15064284 -198.48201506 129.88465739 -207.5 126.625 C-208.69070099 126.19506241 -208.69070099 126.19506241 -209.90545654 125.75643921 C-212.20283336 124.92682265 -214.49991871 124.09640509 -216.796875 123.265625 C-217.47954437 123.01897598 -218.16221375 122.77232697 -218.86557007 122.51820374 C-222.14814089 121.32931504 -225.42414203 120.12563454 -228.69140625 118.89526367 C-232.99357639 117.27692917 -237.31503277 115.71462903 -241.640625 114.16015625 C-242.46649109 113.86314316 -243.29235718 113.56613007 -244.14324951 113.26011658 C-245.88103483 112.63542767 -247.6189312 112.0110476 -249.35693359 111.38696289 C-251.97934602 110.44491948 -254.60101107 109.50081676 -257.22265625 108.55664062 C-265.25991719 105.66737369 -273.29234178 102.79880173 -281.42871094 100.19702148 C-283.64685068 99.41152753 -285.67339652 98.47673013 -287.75 97.375 C-287.75 96.715 -287.75 96.055 -287.75 95.375 C-279.29031406 92.14944935 -270.80658586 89.02222305 -262.25 86.0625 C-250.66963185 82.0464014 -239.21415844 77.70942515 -227.75 73.375 C-208.14281542 65.97646941 -188.48352495 58.71953174 -168.82421875 51.4609375 C-167.88618912 51.11452209 -166.94815948 50.76810669 -165.98170471 50.41119385 C-161.55585435 48.77732567 -157.12904526 47.1461863 -152.69946289 45.52246094 C-143.07728556 41.99323741 -133.49146498 38.38149207 -123.92984009 34.69152832 C-113.25425278 30.5746085 -102.57386599 26.52933114 -91.74365234 22.83374023 C-85.56972864 20.70952748 -79.50478129 18.34788705 -73.4375 15.9375 C-64.78849345 12.50272706 -56.08145758 9.3312413 -47.26806641 6.34423828 C-42.43364956 4.69566975 -37.65695235 2.96985547 -32.91796875 1.0625 C-31.50475342 0.49801147 -31.50475342 0.49801147 -30.06298828 -0.07788086 C-28.2854981 -0.79496704 -26.51377798 -1.52660307 -24.74951172 -2.27563477 C-15.49024517 -5.99848055 -8.86175604 -3.57781026 0 0 Z " fill="#EF282D" transform="translate(774.75,255.625)"/>
<path d="M0 0 C0.66 0 1.32 0 2 0 C3.26623221 1.42991589 4.46003316 2.92394269 5.625 4.4375 C9.84587986 9.72384468 14.34138282 14.65903381 19 19.5625 C19.69891357 20.29855469 20.39782715 21.03460937 21.11791992 21.79296875 C22.47459829 23.22169021 23.83128732 24.65040155 25.18798828 26.07910156 C28.87036057 29.98275356 32.43364011 33.99044199 36 38 C37.54096076 39.70897011 39.08263888 41.41729363 40.625 43.125 C43.84510503 46.70165645 47.02671939 50.30845559 50.1875 53.9375 C52.27211164 56.30964429 54.38428644 58.65556065 56.5 61 C59.18983431 63.98062721 61.86310364 66.97245233 64.5 70 C67.09901752 72.98228278 69.72814662 75.93506943 72.375 78.875 C73.12394531 79.70773437 73.87289062 80.54046875 74.64453125 81.3984375 C76.27880754 83.20345907 77.92274744 84.99975974 79.57421875 86.7890625 C80.80591797 88.13097656 80.80591797 88.13097656 82.0625 89.5 C82.81660156 90.3146875 83.57070313 91.129375 84.34765625 91.96875 C86 94 86 94 86 96 C76.1 96 66.2 96 56 96 C55.01 99.3 54.02 102.6 53 106 C52.06870428 108.64121572 51.1224693 111.26001291 50.125 113.875 C49.89425781 114.49246094 49.66351562 115.10992188 49.42578125 115.74609375 C47.53898178 120.74056294 45.48597763 125.66076985 43.42382812 130.58496094 C40.63710494 137.26889165 37.9120996 143.97805272 35.1875 150.6875 C34.86862823 151.47247864 34.54975647 152.25745728 34.22122192 153.06622314 C28.16718194 167.98592838 22.28136247 182.96903016 16.45581055 197.97924805 C15.82342725 199.60856986 15.19102216 201.2378832 14.55859375 202.8671875 C14.25641434 203.6459021 13.95423492 204.4246167 13.64289856 205.22692871 C11.21547603 211.47140947 8.73650158 217.69414773 6.23413086 223.90893555 C4.76584364 227.58647946 3.36536159 231.28318235 2 235 C1.34 235 0.68 235 0 235 C-0.38671875 233.88882813 -0.7734375 232.77765625 -1.171875 231.6328125 C-1.69780067 230.13016773 -2.22384898 228.62756588 -2.75 227.125 C-3.00265625 226.39796875 -3.2553125 225.6709375 -3.515625 224.921875 C-5.19300002 220.1413562 -6.99880156 215.42920105 -8.89746094 210.73242188 C-11.04990787 205.39801398 -13.14512052 200.04081424 -15.25 194.6875 C-15.97243896 192.85058594 -15.97243896 192.85058594 -16.70947266 190.9765625 C-19.95716143 182.70681623 -23.15619172 174.4198335 -26.27441406 166.1003418 C-27.84603144 161.93028777 -29.48894475 157.80242435 -31.21875 153.6953125 C-34.63123068 145.55975135 -37.83718044 137.34352745 -41.04833984 129.12695312 C-42.1260968 126.37219656 -43.2094919 123.61969851 -44.29296875 120.8671875 C-44.98993154 119.08607372 -45.68655768 117.30482816 -46.3828125 115.5234375 C-46.70162384 114.71587006 -47.02043518 113.90830261 -47.34890747 113.07626343 C-49.55014836 107.41785714 -51.24227526 101.85908245 -53 96 C-62.57 96 -72.14 96 -82 96 C-79.96929791 91.93859582 -77.52799378 89.16571036 -74.4375 85.9375 C-70.61699435 81.87960371 -66.92801739 77.78799993 -63.4375 73.4375 C-60.26521857 69.48505532 -56.95157698 65.70865996 -53.5 62 C-49.21039593 57.39001057 -45.19588878 52.62216484 -41.24609375 47.71484375 C-38.9116941 44.89326505 -36.48009402 42.19409288 -34 39.5 C-30.70668301 35.92207537 -27.55348679 32.28460334 -24.5 28.5 C-20.62116284 23.6959985 -16.5394293 19.12447591 -12.36328125 14.578125 C-6.6213256 8.40534369 -6.6213256 8.40534369 -1.43359375 1.77734375 C-0.96050781 1.19082031 -0.48742187 0.60429688 0 0 Z " fill="#EE282D" transform="translate(760,526)"/>
<path d="M0 0 C0.30441444 16.107583 0.53327474 32.21422572 0.67355824 48.32399464 C0.74044278 55.8051124 0.83152757 63.28443768 0.98071289 70.7644043 C1.1107661 77.28825125 1.19426528 83.81079987 1.22315043 90.33590716 C1.24002493 93.78806755 1.27931751 97.23651587 1.37449074 100.68747902 C1.97584701 123.35093109 1.97584701 123.35093109 -2.84809875 129.09423828 C-5.93517087 132.01216941 -9.27026005 133.99520728 -13 136 C-14.2808802 136.97665263 -15.54371577 137.97850647 -16.76953125 139.0234375 C-17.77371094 139.79945313 -18.77789063 140.57546875 -19.8125 141.375 C-24.92853514 145.35284798 -29.98045611 149.40110803 -35 153.5 C-40.6315156 158.09662966 -46.30796633 162.62750476 -52.04052734 167.09741211 C-56.67014619 170.71509606 -61.19710259 174.44224579 -65.6953125 178.22265625 C-67.74567339 179.80386676 -69.64300356 180.9518426 -72 182 C-78.79291855 173.90339001 -85.16283152 165.54266952 -91.46484375 157.06298828 C-93.90435339 153.78470322 -96.3589769 150.51780175 -98.8125 147.25 C-99.80343544 145.92842293 -100.79431957 144.60680738 -101.78515625 143.28515625 C-104.12410467 140.16631356 -106.46586844 137.04960029 -108.80859375 133.93359375 C-115.77787916 124.66023371 -122.70773205 115.36680898 -129.47607422 105.9453125 C-131.17036556 103.58768774 -132.86625867 101.23122213 -134.5625 98.875 C-135.40518433 97.70191284 -135.40518433 97.70191284 -136.26489258 96.50512695 C-139.68339278 91.76395376 -143.17955681 87.11893312 -146.92578125 82.62890625 C-148 81 -148 81 -148 78 C-147.14341797 77.55684448 -147.14341797 77.55684448 -146.26953125 77.10473633 C-134.97696547 71.25535781 -123.72751647 65.33976499 -112.5625 59.25 C-105.30464157 55.29174894 -98.01592357 51.4518497 -90.59204102 47.81542969 C-85.27761246 45.1918072 -80.14096249 42.29724341 -74.99804688 39.35449219 C-69.75709703 36.375399 -64.41165475 33.67251043 -59 31.01953125 C-54.23914254 28.66699817 -49.60858116 26.13717004 -45 23.5 C-39.19692771 20.18093605 -33.3181012 17.11569651 -27.31420898 14.17773438 C-20.55116921 10.83894502 -13.96890833 7.18265756 -7.38574219 3.50439453 C-6.56879883 3.04919434 -5.75185547 2.59399414 -4.91015625 2.125 C-4.17933838 1.71507812 -3.44852051 1.30515625 -2.69555664 0.8828125 C-1 0 -1 0 0 0 Z " fill="#EE282D" transform="translate(948,414)"/>
<path d="M0 0 C2.5260244 1.2580138 5.05149135 2.51712631 7.57666016 3.77685547 C8.28303116 4.12850266 8.98940216 4.48014984 9.71717834 4.842453 C16.33759382 8.14706535 22.86363711 11.61004601 29.375 15.125 C30.58175866 15.77421135 31.78862995 16.42321338 32.99560547 17.07202148 C36.06987079 18.7252704 39.14267788 20.38120914 42.21508789 22.03790283 C45.03312622 23.55687213 47.85255113 25.07326219 50.671875 26.58984375 C59.36367949 31.26657253 68.05259843 35.94863054 76.73828125 40.63671875 C87.08495 46.21863238 97.4396373 51.77996122 107.85644531 57.22998047 C115.52423343 61.25234539 123.12991422 65.38854557 130.73095703 69.53540039 C136.10703607 72.4619351 141.50563268 75.30169861 147 78 C145.44655471 82.73217149 142.81682542 86.17457807 139.8125 90.0625 C138.72242781 91.49461781 137.63259517 92.92691799 136.54296875 94.359375 C135.96595215 95.11412109 135.38893555 95.86886719 134.79443359 96.64648438 C131.71538389 100.68485705 128.67094417 104.74913301 125.625 108.8125 C124.99384277 109.65361328 124.36268555 110.49472656 123.71240234 111.36132812 C117.67180422 119.41955671 111.69672493 127.52526156 105.73388672 135.64111328 C103.40850906 138.80470086 101.07929612 141.96545346 98.74975586 145.12597656 C97.59012593 146.69933242 96.43078001 148.27289766 95.27172852 149.84667969 C92.23489311 153.9699636 89.19431502 158.09042124 86.1484375 162.20703125 C85.20097656 163.48900391 85.20097656 163.48900391 84.234375 164.796875 C83.02978049 166.42662052 81.82411857 168.05557784 80.6171875 169.68359375 C77.63299674 173.72351237 74.7427895 177.79215953 72 182 C68.02699827 180.65239133 65.57996623 178.95445637 62.5625 176.0625 C58.55604843 172.34775144 54.43972099 168.90462351 50.125 165.5625 C45.68194915 162.1165141 41.30366374 158.62081576 37 155 C33.42242893 151.99427318 29.82022031 149.03764557 26.12928104 146.1731472 C24.97428323 145.26839761 23.82674367 144.3539819 22.6895895 143.42690468 C19.45203649 140.80668498 16.21991966 138.49378555 12.62550354 136.38534546 C6.79480887 132.71560498 1.26964661 128.88986102 -0.94560623 122.1029129 C-2.29409737 114.23003206 -2.01239913 106.29356075 -1.72369695 98.33934832 C-1.61630125 94.87398061 -1.60735419 91.40827275 -1.58726501 87.9414978 C-1.53474042 81.39827878 -1.39571316 74.85997677 -1.22432369 68.31890905 C-1.0332844 60.86356118 -0.94058997 53.4079588 -0.85550129 45.9507668 C-0.6785281 30.63101141 -0.38017896 15.31614327 0 0 Z " fill="#EE282E" transform="translate(576,414)"/>
<path d="M0 0 C2.22598891 1.43337389 4.31929323 2.95177718 6.41015625 4.57421875 C7.44140625 5.31671875 8.47265625 6.05921875 9.53515625 6.82421875 C18.73397878 15.62309247 23.45318761 25.57494749 23.88061523 38.23022461 C24.04862748 54.04975792 20.10483152 65.43309178 9.41015625 77.19921875 C0.56864727 85.72709312 -11.21933741 90.38472483 -23.40234375 90.88671875 C-37.51787453 90.5146815 -48.20289209 84.45763514 -58.328125 75 C-67.38109698 65.29033575 -70.94546046 53.44548122 -70.796875 40.4375 C-70.06233571 26.73071961 -65.6695216 15.5744812 -55.5234375 6.12890625 C-39.4625822 -6.78467033 -18.46514767 -10.16557904 0 0 Z " fill="#FDFCFC" transform="translate(782.58984375,339.42578125)"/>
<path d="M0 0 C0.66 0 1.32 0 2 0 C2.06628601 0.57755035 2.13257202 1.15510071 2.2008667 1.75015259 C2.90651342 7.88573055 3.62243769 14.02005308 4.34375 20.15380859 C4.60993925 22.42825497 4.87370086 24.70298708 5.13476562 26.97802734 C6.67418025 40.37685543 8.53650515 53.61825567 11.04980469 66.86914062 C12.38677254 73.9583035 13.43248035 81.08615879 14.43798828 88.22875977 C14.75780249 90.49273407 15.08762978 92.75511788 15.41796875 95.01757812 C15.6281905 96.48949971 15.83784877 97.96150191 16.046875 99.43359375 C16.23088867 100.72322021 16.41490234 102.01284668 16.60449219 103.34155273 C16.99210791 106.92699812 17.07090485 110.39692923 17 114 C8.94338822 112.46540728 1.44474492 109.80537575 -6.25 107 C-7.51545125 106.5437886 -8.78107531 106.08805625 -10.046875 105.6328125 C-15.06119431 103.82208608 -20.05388188 101.98977712 -25 100 C-23.65414421 90.98549128 -21.70933861 82.18937482 -19.515625 73.34765625 C-19.17385473 71.95786775 -18.83236945 70.56800914 -18.4911499 69.17808533 C-17.77790671 66.2771021 -17.06152343 63.37691854 -16.34277344 60.47729492 C-15.43845933 56.82817374 -14.54162846 53.17726386 -13.64696503 49.52576637 C-2.94925939 5.89851877 -2.94925939 5.89851877 0 0 Z " fill="#EC2E32" transform="translate(543,387)"/>
<path d="M0 0 C1.65 0 3.3 0 5 0 C5 0.66 5 1.32 5 2 C6.32 2.66 7.64 3.32 9 4 C8.01 4.495 8.01 4.495 7 5 C4.64018187 4.06421005 2.30368736 3.06652192 0 2 C0 1.34 0 0.68 0 0 Z " fill="#ED4046" transform="translate(487,351)"/>
</svg>
